<?xml version="1.0" encoding="UTF-8" standalone="no"?>
<!DOCTYPE svg PUBLIC "-//W3C//DTD SVG 1.1//EN"
 "http://www.w3.org/Graphics/SVG/1.1/DTD/svg11.dtd">
<!-- Generated by graphviz version 2.38.0 (20140413.2041)
 -->
<!-- Title: %3 Pages: 1 -->
<svg width="336pt" height="334pt"
 viewBox="0.00 0.00 336.46 334.00" xmlns="http://www.w3.org/2000/svg" xmlns:xlink="http://www.w3.org/1999/xlink">
<g id="graph0" class="graph" transform="scale(1 1) rotate(0) translate(4 330)">
<title>%3</title>
<polygon fill="white" stroke="none" points="-4,4 -4,-330 332.455,-330 332.455,4 -4,4"/>
<!-- forwarder_1 -->
<g id="node1" class="node"><title>forwarder_1</title>
<g id="a_node1"><a xlink:href="https://github.com/betfair/opentsp/wiki/Architecture#forwarder" xlink:title="forwarder">
<polygon fill="none" stroke="black" points="168.196,-254 92.9345,-254 92.9345,-218 168.196,-218 168.196,-254"/>
<text text-anchor="middle" x="130.565" y="-231.8" font-family="Helvetica,sans-Serif" font-size="14.00">forwarder</text>
</a>
</g>
</g>
<!-- OpenTSDB -->
<g id="node4" class="node"><title>OpenTSDB</title>
<g id="a_node4"><a xlink:href="http://opentsdb.net/" xlink:title="OpenTSDB">
<polygon fill="lightgray" stroke="gray" points="137.152,-145 49.9785,-145 49.9785,-109 137.152,-109 137.152,-145"/>
<text text-anchor="middle" x="93.5654" y="-122.8" font-family="Helvetica,sans-Serif" font-size="14.00" fill="dimgray">OpenTSDB</text>
</a>
</g>
</g>
<!-- forwarder_1&#45;&gt;OpenTSDB -->
<g id="edge1" class="edge"><title>forwarder_1&#45;&gt;OpenTSDB</title>
<path fill="none" stroke="black" d="M117.001,-217.972C110.007,-208.09 102.199,-195.047 98.5654,-182 96.1362,-173.277 97.7054,-162.976 99.5435,-155.633"/>
<polygon fill="black" stroke="black" points="102.565,-146 103.866,-156.888 101.069,-150.771 99.5723,-155.542 99.5723,-155.542 99.5723,-155.542 101.069,-150.771 95.2786,-154.195 102.565,-146 102.565,-146"/>
</g>
<!-- aggregator -->
<g id="node6" class="node"><title>aggregator</title>
<g id="a_node6"><a xlink:href="https://github.com/betfair/opentsp/wiki/Architecture#aggregator" xlink:title="aggregator">
<polygon fill="none" stroke="black" points="268.283,-145 184.848,-145 184.848,-109 268.283,-109 268.283,-145"/>
<text text-anchor="middle" x="226.565" y="-122.8" font-family="Helvetica,sans-Serif" font-size="14.00">aggregator</text>
</a>
</g>
</g>
<!-- forwarder_1&#45;&gt;aggregator -->
<g id="edge2" class="edge"><title>forwarder_1&#45;&gt;aggregator</title>
<path fill="none" stroke="black" d="M147.726,-217.84C167.324,-198.241 198.475,-167.091 212.414,-153.152"/>
<polygon fill="black" stroke="black" points="219.565,-146 215.676,-156.253 216.03,-149.536 212.494,-153.071 212.494,-153.071 212.494,-153.071 216.03,-149.536 209.312,-149.889 219.565,-146 219.565,-146"/>
</g>
<!-- forwarder_2 -->
<g id="node2" class="node"><title>forwarder_2</title>
<g id="a_node2"><a xlink:href="https://github.com/betfair/opentsp/wiki/Architecture#forwarder" xlink:title="forwarder">
<polygon fill="none" stroke="black" points="75.1964,-254 -0.0655438,-254 -0.0655438,-218 75.1964,-218 75.1964,-254"/>
<text text-anchor="middle" x="37.5654" y="-231.8" font-family="Helvetica,sans-Serif" font-size="14.00">forwarder</text>
</a>
</g>
</g>
<!-- forwarder_2&#45;&gt;OpenTSDB -->
<g id="edge3" class="edge"><title>forwarder_2&#45;&gt;OpenTSDB</title>
<path fill="none" stroke="black" d="M50.0981,-217.84C63.9691,-198.847 85.7631,-169.006 96.3624,-154.493"/>
<polygon fill="black" stroke="black" points="102.565,-146 100.302,-156.73 99.6165,-150.038 96.6675,-154.076 96.6675,-154.076 96.6675,-154.076 99.6165,-150.038 93.0335,-151.422 102.565,-146 102.565,-146"/>
</g>
<!-- forwarder_2&#45;&gt;aggregator -->
<g id="edge4" class="edge"><title>forwarder_2&#45;&gt;aggregator</title>
<path fill="none" stroke="black" d="M72.6569,-217.84C115.628,-196.827 185.754,-162.534 210.54,-150.414"/>
<polygon fill="black" stroke="black" points="219.565,-146 212.559,-154.436 215.074,-148.197 210.582,-150.393 210.582,-150.393 210.582,-150.393 215.074,-148.197 208.605,-146.351 219.565,-146 219.565,-146"/>
</g>
<!-- forwarder_ddd -->
<g id="node3" class="node"><title>forwarder_ddd</title>
<g id="a_node3"><a xlink:href="https://github.com/betfair/opentsp/wiki/Architecture#forwarder" xlink:title="...">
<polygon fill="none" stroke="black" points="240.565,-254 186.565,-254 186.565,-218 240.565,-218 240.565,-254"/>
<text text-anchor="middle" x="213.565" y="-231.8" font-family="Helvetica,sans-Serif" font-size="14.00">...</text>
</a>
</g>
</g>
<!-- forwarder_ddd&#45;&gt;OpenTSDB -->
<g id="edge5" class="edge"><title>forwarder_ddd&#45;&gt;OpenTSDB</title>
<path fill="none" stroke="black" d="M192.164,-217.84C167.216,-197.837 127.261,-165.801 110.437,-152.312"/>
<polygon fill="black" stroke="black" points="102.565,-146 113.182,-148.745 106.466,-149.128 110.367,-152.256 110.367,-152.256 110.367,-152.256 106.466,-149.128 107.552,-155.766 102.565,-146 102.565,-146"/>
</g>
<!-- forwarder_ddd&#45;&gt;aggregator -->
<g id="edge6" class="edge"><title>forwarder_ddd&#45;&gt;aggregator</title>
<path fill="none" stroke="black" d="M214.722,-217.84C215.948,-199.655 217.845,-171.526 218.862,-156.427"/>
<polygon fill="black" stroke="black" points="219.565,-146 223.383,-156.28 219.229,-150.989 218.893,-155.977 218.893,-155.977 218.893,-155.977 219.229,-150.989 214.403,-155.675 219.565,-146 219.565,-146"/>
</g>
<!-- Riemann -->
<g id="node5" class="node"><title>Riemann</title>
<g id="a_node5"><a xlink:href="http://riemann.io/" xlink:title="Riemann">
<polygon fill="lightgray" stroke="gray" points="262.593,-36 190.538,-36 190.538,-0 262.593,-0 262.593,-36"/>
<text text-anchor="middle" x="226.565" y="-13.8" font-family="Helvetica,sans-Serif" font-size="14.00" fill="dimgray">Riemann</text>
</a>
</g>
</g>
<!-- aggregator&#45;&gt;Riemann -->
<g id="edge9" class="edge"><title>aggregator&#45;&gt;Riemann</title>
<path fill="none" stroke="black" d="M226.565,-108.809C226.565,-91.9611 226.565,-66.0183 226.565,-46.3394"/>
<polygon fill="black" stroke="black" points="226.565,-36.1487 231.066,-46.1487 226.565,-41.1487 226.566,-46.1487 226.566,-46.1487 226.566,-46.1487 226.565,-41.1487 222.066,-46.1488 226.565,-36.1487 226.565,-36.1487"/>
</g>
<!-- controller -->
<g id="node7" class="node"><title>controller</title>
<g id="a_node7"><a xlink:href="https://github.com/betfair/opentsp/wiki/Architecture#controller" xlink:title="controller">
<polygon fill="none" stroke="black" points="250.146,-326 176.985,-326 176.985,-290 250.146,-290 250.146,-326"/>
<text text-anchor="middle" x="213.565" y="-303.8" font-family="Helvetica,sans-Serif" font-size="14.00">controller</text>
</a>
</g>
</g>
<!-- controller&#45;&gt;forwarder_1 -->
<g id="edge10" class="edge"><title>controller&#45;&gt;forwarder_1</title>
<path fill="none" stroke="black" stroke-dasharray="1,5" d="M193.049,-289.697C180.183,-278.846 163.667,-264.917 150.846,-254.104"/>
</g>
<!-- controller&#45;&gt;forwarder_2 -->
<g id="edge11" class="edge"><title>controller&#45;&gt;forwarder_2</title>
<path fill="none" stroke="black" stroke-dasharray="1,5" d="M176.67,-292.326C146.934,-280.499 105.285,-263.934 75.3227,-252.017"/>
</g>
<!-- controller&#45;&gt;forwarder_ddd -->
<g id="edge12" class="edge"><title>controller&#45;&gt;forwarder_ddd</title>
<path fill="none" stroke="black" stroke-dasharray="1,5" d="M213.565,-289.697C213.565,-278.846 213.565,-264.917 213.565,-254.104"/>
</g>
<!-- controller&#45;&gt;aggregator -->
<g id="edge13" class="edge"><title>controller&#45;&gt;aggregator</title>
<path fill="none" stroke="black" stroke-dasharray="1,5" d="M250.203,-299.578C275.03,-292.437 306.045,-278.905 321.565,-254 347.139,-212.963 292.291,-168.618 255.759,-145.034"/>
</g>
<!-- poller -->
<g id="node8" class="node"><title>poller</title>
<g id="a_node8"><a xlink:href="https://github.com/betfair/opentsp/wiki/Architecture#poller" xlink:title="poller">
<polygon fill="none" stroke="black" points="312.565,-254 258.565,-254 258.565,-218 312.565,-218 312.565,-254"/>
<text text-anchor="middle" x="285.565" y="-231.8" font-family="Helvetica,sans-Serif" font-size="14.00">poller</text>
</a>
</g>
</g>
<!-- controller&#45;&gt;poller -->
<g id="edge14" class="edge"><title>controller&#45;&gt;poller</title>
<path fill="none" stroke="black" stroke-dasharray="1,5" d="M231.363,-289.697C242.524,-278.846 256.851,-264.917 267.972,-254.104"/>
</g>
<!-- poller&#45;&gt;OpenTSDB -->
<g id="edge7" class="edge"><title>poller&#45;&gt;OpenTSDB</title>
<path fill="none" stroke="black" d="M258.563,-221.868C216.806,-201.559 138.584,-163.517 111.821,-150.501"/>
<polygon fill="black" stroke="black" points="102.565,-146 113.526,-146.327 107.062,-148.187 111.558,-150.374 111.558,-150.374 111.558,-150.374 107.062,-148.187 109.59,-154.42 102.565,-146 102.565,-146"/>
</g>
<!-- poller&#45;&gt;aggregator -->
<g id="edge8" class="edge"><title>poller&#45;&gt;aggregator</title>
<path fill="none" stroke="black" d="M287.053,-217.607C287.168,-206.308 285.634,-191.739 278.565,-181 266.91,-163.292 242.939,-153.288 229.413,-148.836"/>
<polygon fill="black" stroke="black" points="219.565,-146 230.42,-144.443 224.37,-147.384 229.175,-148.767 229.175,-148.767 229.175,-148.767 224.37,-147.384 227.93,-153.092 219.565,-146 219.565,-146"/>
</g>
</g>
</svg>
